<?xml version="1.0" encoding="UTF-8"?><svg id="Calque_1" xmlns="http://www.w3.org/2000/svg" xmlns:xlink="http://www.w3.org/1999/xlink" viewBox="0 0 141.7322834646 141.7322834646"><defs><style>.cls-1{fill:url(#Dégradé_sans_nom_91);}.cls-1,.cls-2{stroke-width:0px;}.cls-2{fill:url(#Dégradé_sans_nom_84);}</style><linearGradient id="Dégradé_sans_nom_84" x1="55.7582089315" y1="8.9625937958" x2="138.8470790289" y2="92.0514638931" gradientUnits="userSpaceOnUse"><stop offset="0" stop-color="#5894ff" stop-opacity="0"/><stop offset=".0615482238" stop-color="rgba(88,148,255,.0333851395)" stop-opacity=".0333851395"/><stop offset=".1598413409" stop-color="rgba(88,148,255,.1245728332)" stop-opacity=".1245728332"/><stop offset=".2825916276" stop-color="rgba(88,148,255,.2734452877)" stop-opacity=".2734452877"/><stop offset=".4249981321" stop-color="rgba(88,148,255,.48017605)" stop-opacity=".48017605"/><stop offset=".5818440557" stop-color="rgba(88,148,255,.7406712378)" stop-opacity=".7406712378"/><stop offset=".723265875" stop-color="#5894ff"/></linearGradient><linearGradient id="Dégradé_sans_nom_91" x1="81.3901865346" y1="128.1808727699" x2="9.0775055748" y2="55.8681918102" gradientUnits="userSpaceOnUse"><stop offset="0" stop-color="#5894ff" stop-opacity="0"/><stop offset=".0644565721" stop-color="rgba(88,148,255,.045408811)" stop-opacity=".045408811"/><stop offset=".1798525922" stop-color="rgba(88,148,255,.1665771467)" stop-opacity=".1665771467"/><stop offset=".3328126528" stop-color="rgba(88,148,255,.3632165307)" stop-opacity=".3632165307"/><stop offset=".5176500404" stop-color="rgba(88,148,255,.6355538454)" stop-opacity=".6355538454"/><stop offset=".7275061272" stop-color="rgba(88,148,255,.978051058)" stop-opacity=".978051058"/><stop offset=".7403654876" stop-color="#5894ff"/></linearGradient></defs><path class="cls-2" d="M137.0763779528,70.8652534546c0-36.5078255146-29.7015085489-66.2093340634-66.2102223411-66.2093340634v35.6871124221c16.8302534063,0,30.523109919,13.6928009953,30.523109919,30.5222216413,0,.7313856646-.0345317962,1.4571085587-.0852191434,2.1796114462h-28.2595839873l38.7966673611,38.7969171892.0002220694-.0003886215,5.8423413329,5.8423135742c12.5053124821-12.5061730012,19.3926847895-29.1334549493,19.3926847895-46.8184535881Z"/><path class="cls-1" d="M40.343017934,70.8652534546c0-.6225716443.0248440174-1.2410905216.0616242666-1.8573887046h28.6133405878L30.2212876685,30.2110030781l-.0031367307.0071062217-6.1695606366-6.1695328779c-12.5053124821,12.5061730012-19.3926847895,29.1334549493-19.3926847895,46.8166770326,0,36.50960207,29.7015085488,66.2111106189,66.2102500998,66.2111106189v-35.6871124221c-16.830281165,0-30.5231376777-13.6928009953-30.5231376777-30.5239981967Z"/></svg>